<!DOCTYPE svg PUBLIC "-//W3C//DTD SVG 1.1//EN" "http://www.w3.org/Graphics/SVG/1.1/DTD/svg11.dtd">

<!-- Uploaded to: SVG Repo, www.svgrepo.com, Transformed by: SVG Repo Mixer Tools -->
<svg fill="#000000" version="1.1" id="Capa_1" xmlns="http://www.w3.org/2000/svg" xmlns:xlink="http://www.w3.org/1999/xlink" width="800px" height="800px" viewBox="-79.2 -79.2 950.39 950.39" xml:space="preserve" stroke="#000000" stroke-width="0.00791995">

<g id="SVGRepo_bgCarrier" stroke-width="0">

<path transform="translate(-79.2, -79.2), scale(29.699687500000003)" d="M16,31.955710840877146C19.026091802798852,32.05358356638631,19.596466218287876,27.191743746071218,22.07489105952663,25.452715001140405C24.39305766940495,23.826134157114378,28.076284161136282,24.55681801182435,29.77449686468409,22.290601939421723C31.501961155420712,19.985350464155786,31.160344271542858,16.730572524081467,30.747279857608035,13.879661261006685C30.334532290881928,11.030936831862704,29.30801480650146,8.277290502215186,27.4282785737217,6.097340245393951C25.54586626670713,3.914286516599519,23.089445319141618,1.8059431148431417,20.210567717511445,1.6601232559922323C17.41915979535547,1.518733879461044,15.241937260319567,3.8723732037210965,12.875883896927299,5.360237654956874C11.124527418559852,6.461557298005173,9.880677809435365,8.045294783964517,8.180983666034422,9.224783778984047C5.732285526843903,10.924038035118008,1.3399313291883432,10.888334703840934,0.7112228912525342,13.801805710034888C0.0999786925269962,16.634346428810687,3.8407373009780876,18.482869774013338,5.704297479644826,20.70188979521327C7.0711576078349,22.329468032479355,8.737860429216024,23.499602469070485,10.17250654476353,25.06775681466355C12.244513880377793,27.3325852432438,12.931968745046216,31.85648166990755,16,31.955710840877146" fill="#90ee90" strokewidth="0"/>

</g>

<g id="SVGRepo_tracerCarrier" stroke-linecap="round" stroke-linejoin="round"/>

<g id="SVGRepo_iconCarrier"> <g> <path d="M589.6,460.825c-44.312-27.892-106.504-23.332-157.699-22.468c8.09-15.622,5.591-33.334-9.26-47.108 c-18.967-17.582-47.146-13.115-65.601,2.034c-16.021,13.151-21.056,36.678-15.511,55.913c4.263,14.796,15.762,23.582,29.22,27.539 c-8.721,7.467-15.566,16.792-15.334,28.773c0.288,14.582,13.783,23.88,25.83,28.839c27.9,11.489,61.468-5.146,58.374-34.551 c44.656,3.799,91.124,9.056,116.759,50.981c32.229,52.719,0.521,113.656-46.486,142.365 c-80.953,49.439-196.291,10.607-249.641-60.52c-68.368-91.152-68.229-205.552-16.857-303.874 c47.591-91.086,127.839-154.421,201.622-222.845c7.189,17.981,16.904,38.889,34.402,52.198 c17.294,13.152,42.976,1.839,53.007-14.554c17.34-28.365,1.885-62.275-24.455-73.533c8.498-6.585,14.34-15.371,12.223-27.102 c-3.214-17.823-21.854-29.582-37.282-35.935c-16.625-6.845-37.987-10.978-54.306-1.151c-18.669,11.238-13.867,36.26-6.177,52.941 C291.634,93.831,201.058,222.134,165.309,346.435c-33.214,115.458-26.796,259.616,56.935,352.254 c63.529,70.291,165.427,103.653,258.344,90.483c98.173-13.914,158.35-91.867,164.275-187.896 C648.114,548.475,637.126,490.741,589.6,460.825z"/> </g> </g>

</svg>