<!DOCTYPE svg PUBLIC "-//W3C//DTD SVG 1.1//EN" "http://www.w3.org/Graphics/SVG/1.1/DTD/svg11.dtd">
<!-- Uploaded to: SVG Repo, www.svgrepo.com, Transformed by: SVG Repo Mixer Tools -->
<svg fill="#ffffff" height="800px" width="800px" version="1.1" id="Capa_1" xmlns="http://www.w3.org/2000/svg" xmlns:xlink="http://www.w3.org/1999/xlink" viewBox="0 0 34.016 34.016" xml:space="preserve">
<g id="SVGRepo_bgCarrier" stroke-width="0"/>
<g id="SVGRepo_tracerCarrier" stroke-linecap="round" stroke-linejoin="round"/>
<g id="SVGRepo_iconCarrier"> <g> <g> <path d="M27.374,20.833c-1.156-1.574-6.229-2.242-6.628-3.767c0,0-1.471,3.796-3.737,3.782c-2.269,0.014-3.737-3.782-3.737-3.782 c-0.396,1.522-5.47,2.192-6.628,3.767c-1.528,2.266-3.438,9.83-1.506,10.846c4.443,1.987,11.41,2.334,11.41,2.334 c0.156,0.004,0.763,0.004,0.919,0c0,0,6.966-0.348,11.411-2.334C30.809,30.663,28.903,23.098,27.374,20.833z"/> <path d="M11.993,12.599c0.027,0.015,0.057,0.03,0.086,0.044c0.39,2.713,2.716,5.481,4.831,5.481c2.47,0,4.744-2.917,5.11-5.526 c0.143-0.098,0.437-0.42,0.525-0.962c0,0,0.526-1.886-0.175-1.686c0.217-0.647,0.873-2.954-0.078-4.697 c-0.029-2.376-3.706-3.55-4.316-4.101c-0.663-0.598-0.211-0.879-0.211-0.879c-0.874,0.059-1.268,0.512-1.268,0.512 C16.468,0.544,16.891,0,16.891,0c-2.251,0.728-3.244,2.452-3.674,3.623c-0.603,0.552-1.19,1.284-1.49,2.21 c0,0-0.313,1.26,0.021,3.771c0.045,0.394,0.069,1.365,1.131,2.906c1.18,1.71,2.835,2.254,3.819,2.418h1.26 c0.229,0,0.408,0.182,0.408,0.406v0.61c0,0.225-0.183,0.407-0.408,0.407h-1.896c-0.225,0-0.407-0.182-0.407-0.407V15.28 c-1.069-0.352-2.386-1.074-3.353-2.551c-0.425-0.647-0.78-1.44-1.019-2.409c-0.043,0.502,0.183,1.317,0.183,1.317 C11.556,12.179,11.85,12.501,11.993,12.599z"/> </g> </g> </g>
</svg>